<svg width="130" height="50" viewBox="0 0 130 50" fill="none" xmlns="http://www.w3.org/2000/svg">
<g id="Logo">
<g id="Group">
<g id="Layer 2">
<g id="Camada 1">
<path id="Vector" d="M45.6485 43.8861C45.6091 43.1606 45.564 42.2904 45.5715 41.6438H45.5489C45.361 42.2509 45.1542 42.8993 44.893 43.6154L43.9758 46.1358H43.4683L42.6263 43.6624C42.3782 42.9294 42.1715 42.2603 42.0249 41.6438H42.0098C41.9929 42.2904 41.9553 43.1606 41.9083 43.9387L41.7711 46.1659H41.1302L41.4986 40.9729H42.3538L43.2409 43.4839C43.4552 44.1248 43.6337 44.6943 43.7634 45.2337H43.7878C43.9175 44.7093 44.1036 44.1398 44.3348 43.4839L45.2576 40.9729H46.1128L46.436 46.1659H45.782L45.6485 43.8861Z" fill="white"/>
<path id="Vector_2" d="M50.1706 46.1658L50.118 45.6959H50.0954C49.8267 46.053 49.4019 46.2598 48.9546 46.2504C48.3701 46.2936 47.8607 45.8557 47.8175 45.2712C47.8156 45.2411 47.8137 45.211 47.8137 45.1791C47.8137 44.2788 48.6144 43.7845 50.056 43.792V43.7112C50.056 43.4029 49.9714 42.8485 49.2083 42.8485C48.8644 42.8504 48.5298 42.9462 48.2366 43.1266L48.0825 42.6793C48.4527 42.4575 48.8756 42.3429 49.3079 42.3485C50.4488 42.3485 50.7269 43.1266 50.7269 43.8747V45.2693C50.7213 45.5681 50.742 45.8669 50.789 46.162L50.1706 46.1658ZM50.071 44.2637C49.3324 44.2468 48.4922 44.3784 48.4922 45.102C48.464 45.4328 48.7102 45.7222 49.0392 45.7504C49.0692 45.7523 49.1012 45.7523 49.1313 45.7504C49.5353 45.7579 49.8981 45.5061 50.0334 45.1264C50.056 45.0569 50.0691 44.9836 50.071 44.9103V44.2637Z" fill="white"/>
<path id="Vector_3" d="M52.4373 43.6002C52.4373 43.1604 52.4373 42.7827 52.4054 42.4368H52.9993L53.0218 43.168H53.0538C53.1872 42.7037 53.6026 42.3748 54.0856 42.3523C54.1495 42.3523 54.2116 42.3598 54.2736 42.3748V43.0138C54.1984 42.9969 54.1195 42.9894 54.0424 42.9913C53.565 42.9913 53.2248 43.354 53.1327 43.8615C53.1139 43.9649 53.1045 44.072 53.1027 44.1773V46.1658H52.4373V43.6002Z" fill="white"/>
<path id="Vector_4" d="M56.2752 44.1472H56.2903C56.3824 44.0156 56.514 43.854 56.6211 43.7243L57.7149 42.4369H58.5325L57.0985 43.9705L58.7412 46.1658H57.9161L56.6286 44.3784L56.2828 44.7543V46.1564H55.6118V40.704H56.2828L56.2752 44.1472Z" fill="white"/>
<path id="Vector_5" d="M60.2128 44.4254C60.2278 45.3426 60.8142 45.7185 61.4908 45.7185C61.8442 45.7298 62.1975 45.6659 62.5246 45.5306L62.6392 46.0155C62.2464 46.179 61.8235 46.2579 61.3988 46.2467C60.2504 46.2467 59.5644 45.4949 59.5644 44.3672C59.5644 43.2395 60.2278 42.3561 61.3142 42.3561C62.5321 42.3561 62.8554 43.4274 62.8554 44.1134C62.8554 44.2187 62.846 44.3239 62.8328 44.4292L60.2128 44.4254ZM62.2013 43.9386C62.2013 43.5082 62.0227 42.8372 61.2615 42.8372C60.5755 42.8372 60.2767 43.4688 60.2222 43.9386H62.2013Z" fill="white"/>
<path id="Vector_6" d="M65.1277 41.3656V42.4369H66.0994V42.9594H65.1277V44.9705C65.1277 45.4329 65.2593 45.6941 65.6371 45.6941C65.7686 45.696 65.9021 45.6809 66.0299 45.6471L66.0618 46.1565C65.8682 46.2241 65.6652 46.2561 65.4604 46.2486C65.186 46.2655 64.9191 46.1621 64.7274 45.9648C64.5394 45.7636 64.4661 45.4328 64.4661 44.993V42.9594H63.8872V42.4426H64.4661V41.5479L65.1277 41.3656Z" fill="white"/>
<path id="Vector_7" d="M68.2345 41.3882C68.2194 41.6194 68.0183 41.796 67.7871 41.781C67.5766 41.7678 67.4094 41.5987 67.3943 41.3882C67.3887 41.1608 67.5672 40.9709 67.7947 40.9653C67.8022 40.9653 67.8097 40.9653 67.8172 40.9653C68.039 40.9559 68.2269 41.1288 68.2345 41.3525C68.2345 41.3637 68.2345 41.3769 68.2345 41.3882ZM67.4827 46.1659V42.4369H68.1612V46.1659H67.4827Z" fill="white"/>
<path id="Vector_8" d="M69.8979 43.4461C69.8979 43.0608 69.8979 42.7451 69.8678 42.4368H70.4692L70.5068 43.0533H70.5237C70.7718 42.6079 71.2455 42.3391 71.7548 42.3523C72.2717 42.3523 73.0705 42.6605 73.0705 43.9386V46.1658H72.392V44.0156C72.392 43.4161 72.1683 42.9142 71.5293 42.9142C71.1064 42.9199 70.738 43.2018 70.6196 43.6078C70.5858 43.7093 70.5707 43.8164 70.5726 43.9235V46.1658H69.8979V43.4461Z" fill="white"/>
<path id="Vector_9" d="M78.0041 42.4369C77.9891 42.7056 77.9741 43.0007 77.9741 43.4612V45.6264C77.9741 46.4816 77.8049 47.0059 77.4422 47.3292C77.0625 47.6431 76.5795 47.8028 76.087 47.7765C75.6529 47.7878 75.2244 47.6807 74.8466 47.4683L75.0157 46.9514C75.3465 47.1469 75.7243 47.2484 76.1096 47.2446C76.8031 47.2446 77.3125 46.8838 77.3125 45.9421V45.5268H77.2956C77.0418 45.9346 76.5889 46.1714 76.1096 46.1508C75.1849 46.1508 74.5214 45.3651 74.5214 44.3314C74.5214 43.0684 75.3465 42.3523 76.2017 42.3523C76.6828 42.3241 77.1358 42.576 77.3651 42.9988H77.3801L77.4121 42.435H78.0041V42.4369ZM77.3031 43.9085C77.3219 43.3635 76.8971 42.9049 76.3502 42.8842C76.3389 42.8842 76.3276 42.8842 76.3182 42.8842C75.6698 42.8842 75.2074 43.4311 75.2074 44.2938C75.2074 45.0249 75.5833 45.6339 76.3107 45.6339C76.7411 45.632 77.1208 45.352 77.2505 44.9404C77.2862 44.8238 77.305 44.7017 77.3031 44.5795V43.9085Z" fill="white"/>
<path id="Vector_10" d="M82.3439 44.4254C82.359 45.3426 82.9435 45.7185 83.622 45.7185C83.9753 45.7298 84.3287 45.6659 84.6557 45.5306L84.7704 46.0155C84.3775 46.179 83.9547 46.2579 83.5299 46.2467C82.3815 46.2467 81.6955 45.4949 81.6955 44.3672C81.6955 43.2395 82.359 42.3561 83.4453 42.3561C84.6632 42.3561 84.9865 43.4274 84.9865 44.1134C84.9865 44.2187 84.9771 44.3239 84.9639 44.4292L82.3439 44.4254ZM84.3306 43.9386C84.34 43.5082 84.1539 42.8372 83.3908 42.8372C82.7048 42.8372 82.4041 43.4688 82.3514 43.9386H84.3306Z" fill="white"/>
<path id="Vector_11" d="M89.3864 41.5423H87.8076V40.9785H91.6531V41.5423H90.0649V46.1659H89.3864V41.5423Z" fill="white"/>
<path id="Vector_12" d="M92.6548 44.4254C92.6699 45.3426 93.2544 45.7185 93.9329 45.7185C94.2862 45.7298 94.6377 45.6659 94.9647 45.5306L95.0813 46.0155C94.6885 46.179 94.2656 46.2579 93.8408 46.2467C92.6924 46.2467 92.0064 45.4949 92.0064 44.3672C92.0064 43.2395 92.6699 42.3561 93.7562 42.3561C94.9741 42.3561 95.2974 43.4274 95.2974 44.1134C95.2974 44.2187 95.288 44.3239 95.2749 44.4292L92.6548 44.4254ZM94.6415 43.9386C94.6415 43.5082 94.4648 42.8372 93.7017 42.8372C93.0157 42.8372 92.715 43.4688 92.6624 43.9386H94.6415Z" fill="white"/>
<path id="Vector_13" d="M99.4116 46.0267C99.0752 46.1771 98.7087 46.2523 98.3403 46.2429C97.2126 46.2429 96.4833 45.4798 96.4833 44.3408C96.4833 43.2018 97.269 42.3598 98.4869 42.3598C98.8102 42.3542 99.1297 42.42 99.4266 42.5478L99.2725 43.0721C99.0301 42.9462 98.7594 42.8861 98.4869 42.8955C97.6317 42.8955 97.1712 43.527 97.1712 44.3051C97.1712 45.1678 97.7257 45.6997 98.4662 45.6997C98.7538 45.6997 99.0395 45.6358 99.2988 45.5117L99.4116 46.0267Z" fill="white"/>
<path id="Vector_14" d="M100.823 43.4461C100.823 43.0609 100.823 42.7451 100.791 42.4369H101.393L101.43 43.0533H101.455C101.703 42.6079 102.178 42.3372 102.688 42.3523C103.203 42.3523 104.003 42.6605 104.003 43.9386V46.1658H103.325V44.0156C103.325 43.4161 103.101 42.9142 102.462 42.9142C102.039 42.9199 101.671 43.2018 101.552 43.6078C101.519 43.7093 101.503 43.8164 101.505 43.9235V46.1658H100.829L100.823 43.4461Z" fill="white"/>
<path id="Vector_15" d="M109.091 44.2751C109.091 45.6546 108.134 46.2542 107.234 46.2542C106.225 46.2542 105.445 45.5155 105.445 44.3352C105.445 43.0872 106.262 42.3561 107.294 42.3561C108.366 42.3523 109.091 43.1305 109.091 44.2751ZM106.131 44.3127C106.131 45.1302 106.601 45.7467 107.259 45.7467C107.916 45.7467 108.386 45.1378 108.386 44.2976C108.386 43.6661 108.07 42.8636 107.259 42.8636C106.447 42.8636 106.131 43.6003 106.131 44.3089V44.3127Z" fill="white"/>
<path id="Vector_16" d="M110.563 40.704H111.241V46.1752H110.563V40.704Z" fill="white"/>
<path id="Vector_17" d="M116.372 44.2751C116.372 45.6546 115.417 46.2542 114.515 46.2542C113.506 46.2542 112.728 45.5155 112.728 44.3352C112.728 43.0872 113.545 42.3561 114.577 42.3561C115.649 42.3523 116.372 43.1305 116.372 44.2751ZM113.414 44.3127C113.414 45.1302 113.884 45.7467 114.542 45.7467C115.199 45.7467 115.669 45.1378 115.669 44.2976C115.669 43.6661 115.354 42.8636 114.553 42.8636C113.752 42.8636 113.414 43.6003 113.414 44.3089V44.3127Z" fill="white"/>
<path id="Vector_18" d="M121.058 42.4369C121.043 42.7056 121.028 43.0007 121.028 43.4612V45.6264C121.028 46.4816 120.857 47.0059 120.496 47.3292C120.114 47.6431 119.631 47.8028 119.139 47.7765C118.705 47.7878 118.276 47.6807 117.898 47.4683L118.068 46.9514C118.398 47.1469 118.776 47.2484 119.161 47.2446C119.855 47.2446 120.364 46.8838 120.364 45.9421V45.5268H120.349C120.095 45.9346 119.641 46.1714 119.161 46.1508C118.237 46.1508 117.575 45.3651 117.575 44.3314C117.575 43.0684 118.398 42.3523 119.255 42.3523C119.736 42.3241 120.189 42.576 120.419 42.9988H120.438L120.468 42.435H121.058V42.4369ZM120.357 43.9085C120.36 43.8052 120.347 43.6999 120.317 43.6003C120.201 43.1774 119.815 42.8842 119.378 42.8842C118.731 42.8842 118.269 43.4311 118.269 44.2938C118.269 45.0249 118.645 45.6339 119.37 45.6339C119.8 45.632 120.18 45.352 120.31 44.9404C120.347 44.8238 120.366 44.7017 120.364 44.5795L120.357 43.9085Z" fill="white"/>
<path id="Vector_19" d="M123.477 41.3882C123.486 41.6099 123.315 41.796 123.095 41.8054C123.078 41.8054 123.063 41.8054 123.046 41.8054C122.823 41.8073 122.638 41.6269 122.637 41.4032C122.637 41.3976 122.637 41.3938 122.637 41.3882C122.631 41.1607 122.811 40.9709 123.041 40.9653C123.048 40.9653 123.054 40.9653 123.061 40.9653C123.283 40.9578 123.469 41.1307 123.477 41.3543C123.477 41.3656 123.477 41.3769 123.477 41.3882ZM122.725 46.1659V42.4369H123.402V46.1659H122.725Z" fill="white"/>
<path id="Vector_20" d="M127.204 46.1658L127.149 45.6959H127.127C126.858 46.053 126.433 46.2597 125.986 46.2503C125.401 46.2936 124.892 45.8557 124.849 45.2711C124.847 45.2411 124.845 45.211 124.845 45.179C124.845 44.2788 125.648 43.7844 127.087 43.792V43.7111C127.087 43.4029 127.003 42.8485 126.24 42.8485C125.898 42.8485 125.561 42.9462 125.27 43.1266L125.116 42.6793C125.486 42.4556 125.909 42.341 126.341 42.3485C127.48 42.3485 127.758 43.1266 127.758 43.8747V45.2692C127.753 45.5681 127.773 45.8669 127.82 46.162L127.204 46.1658ZM127.102 44.2637C126.364 44.2468 125.523 44.3784 125.523 45.102C125.497 45.4328 125.743 45.7222 126.074 45.7504C126.104 45.7523 126.132 45.7523 126.163 45.7504C126.567 45.7617 126.933 45.5098 127.065 45.1264C127.087 45.0569 127.1 44.9836 127.102 44.9103V44.2637Z" fill="white"/>
<g id="EFICAZ">
<path id="Vector_21" fill-rule="evenodd" clip-rule="evenodd" d="M23.9535 21.8188C23.9667 21.364 24.3332 20.9975 24.788 20.9843H26.2596C27.3873 20.9843 27.8798 20.4938 28.1241 20.0446C28.2726 19.7514 28.8609 18.3286 29.2518 17.4471H23.9516V7.24895C23.9309 6.80915 24.2711 6.43701 24.7109 6.41633C24.7354 6.41633 24.7617 6.41633 24.7861 6.41633H27.6317C28.7594 6.41633 29.3007 5.87692 29.4961 5.43523L30.6746 2.88663H21.5008C20.9388 2.87912 20.4689 3.30764 20.42 3.86585V37.2119H28.2726C29.4003 37.2119 29.9397 36.7214 30.1859 36.2816C30.3325 35.9865 30.9227 34.6145 31.3136 33.7311H23.9535V21.8188ZM40.8878 3.92224V37.2119H43.3424C43.91 37.2082 44.3686 36.7496 44.3724 36.182V22.3075C44.3761 21.8433 44.7558 21.4711 45.2182 21.473C45.2313 21.473 45.2426 21.473 45.2557 21.473H47.6108C48.7385 21.473 49.2309 20.9336 49.4771 20.4919L50.6537 17.9433H44.3724V7.24707C44.3855 6.79223 44.752 6.42761 45.2069 6.41445H49.1331C50.2608 6.41445 50.7514 5.87504 50.9976 5.43335C51.1442 5.14015 51.7832 3.76624 52.1253 2.88475H41.9196C41.3483 2.88663 40.8878 3.34899 40.8878 3.92036V3.92224ZM63.5151 2.89415H61.4063V36.477C61.4551 36.7214 61.5942 37.2119 62.4362 37.2119H64.9397V4.26619C64.9548 3.52378 64.3665 2.90731 63.6222 2.89227C63.5865 2.89227 63.5508 2.89227 63.5151 2.89415ZM82.6089 2.5502H80.4494C78.0286 2.53329 76.0513 4.48233 76.0344 6.905C76.0344 6.90876 76.0344 6.91064 76.0344 6.9144V33.186C76.0476 35.6087 78.0211 37.5634 80.4437 37.5502C80.4456 37.5502 80.4475 37.5502 80.4494 37.5502H82.6089C84.9583 37.4638 86.8227 35.5373 86.8284 33.186V24.9162C85.9469 25.3091 84.573 25.8973 84.2779 26.0439C83.8362 26.2883 83.3381 26.8277 83.3381 27.9554V32.5639C83.372 33.607 82.5525 34.481 81.5075 34.513C80.4644 34.5468 79.5904 33.7273 79.5585 32.6823C79.5585 32.6429 79.5585 32.6034 79.5585 32.5639V7.50268C79.5923 6.45956 80.4644 5.6401 81.5075 5.67205C82.5055 5.704 83.3062 6.50467 83.3381 7.50268V15.1992L85.8962 14.0151C86.3378 13.8272 86.8359 13.2803 86.8359 12.1526V6.9144C86.8472 4.55187 84.9696 2.61411 82.6089 2.5502ZM101.267 2.89415H99.3477L94.1453 37.2119H98.0227L101.114 13.581L104.206 37.2119H108.082L103.126 4.75674C102.979 3.8245 102.735 2.89415 101.267 2.89415ZM118.393 33.7311C117.902 33.7311 117.607 33.389 117.756 32.7913L127.905 2.88475H114.56C114.953 3.76624 115.543 5.14015 115.688 5.43335C115.934 5.87504 116.474 6.41445 117.601 6.41445H121.577C122.165 6.41445 122.362 6.80539 122.264 7.24707L112.168 37.2119H124.977C126.104 37.2119 126.595 36.7214 126.841 36.2327L127.969 33.7311H118.393Z" fill="white"/>
</g>
<path id="Vector_22" d="M14.3774 4.05376C13.9376 4.24171 13.3982 4.78865 13.3982 5.91823V37.2307H16.9279V2.86592L14.3774 4.05376Z" fill="white"/>
<path id="Vector_23" d="M8.7164 9.31636C8.2766 9.50431 7.73718 10.0512 7.73718 11.1808V37.2213H11.2669V8.13603L8.7164 9.31636Z" fill="white"/>
<path id="Vector_24" d="M3.01024 17.3231C2.56856 17.5204 2.02914 18.0598 2.02914 19.1875V37.2307H5.55884V16.1465L3.01024 17.3231Z" fill="white"/>
</g>
</g>
</g>
</g>
</svg>
